<svg xmlns="http://www.w3.org/2000/svg" height="14" width="13.5625" viewBox="0 0 496 512" fill="#ffffff" ><!--!Font Awesome Free 6.5.1 by @fontawesome - https://fontawesome.com License - https://fontawesome.com/license/free Copyright 2024 Fonticons, Inc.--><path d="M347.9 129.9L203.6 195.8a31.9 31.9 0 0 0 -15.8 15.8l-66 144.3c-7.6 16.7 9.5 33.8 26.2 26.2l144.3-66a31.9 31.9 0 0 0 15.8-15.8l66-144.3c7.6-16.7-9.5-33.8-26.2-26.2zm-77.4 148.7c-12.5 12.5-32.7 12.5-45.2 0-12.5-12.5-12.5-32.7 0-45.2 12.5-12.5 32.7-12.5 45.2 0 12.5 12.5 12.5 32.7 0 45.2zM248 8C111 8 0 119 0 256s111 248 248 248 248-111 248-248S385 8 248 8zm0 448c-110.3 0-200-89.7-200-200S137.7 56 248 56s200 89.7 200 200-89.7 200-200 200z"/></svg>