<?xml version="1.0" ?><svg viewBox="0 0 256 256" xmlns="http://www.w3.org/2000/svg"><rect fill="#888888" height="256" width="256"/><line fill="#518f6d" stroke="#000" stroke-linecap="round" stroke-linejoin="round" stroke-width="16" x1="80" x2="176" y1="136" y2="136"/><path d="M48,96V72A32,32,0,0,1,80,40h96a32,32,0,0,1,32,32V96" fill="#518f6d" stroke="#000" stroke-linecap="round" stroke-linejoin="round" stroke-width="16"/><path d="M80,168V128a32,32,0,1,0-32,32h0v40a8,8,0,0,0,8,8H200a8,8,0,0,0,8-8V160h0a32,32,0,1,0-32-32v40" fill="#518f6d" stroke="#000" stroke-linecap="round" stroke-linejoin="round" stroke-width="16"/><path d="M 80 128 L 176 128 L 176 168 L 80 168 Z M 48 96 A 32 32 0 0 1 80 128 L 176 128 A 32 32 0 0 1 208 96" fill="#518f6d" stroke="#000" stroke-linecap="round" stroke-linejoin="round" stroke-width="16"/></svg>